<svg width="25" height="24" viewBox="0 0 25 24" fill="none" xmlns="http://www.w3.org/2000/svg">
<path d="M12.755 19.0006H14.755V6.0006L21.149 8.74059C21.329 8.81776 21.4824 8.94607 21.5901 9.10962C21.6978 9.27317 21.7552 9.46475 21.755 9.66059V19.0006H23.755V21.0006H1.755V19.0006H3.755V5.6506C3.75498 5.45711 3.81109 5.26778 3.91652 5.10554C4.02195 4.94331 4.17219 4.81515 4.349 4.7366L12.052 1.3126C12.1282 1.27874 12.2117 1.26448 12.2948 1.27112C12.3779 1.27775 12.4581 1.30508 12.5279 1.3506C12.5978 1.39612 12.6552 1.45839 12.6948 1.53174C12.7345 1.6051 12.7552 1.68721 12.755 1.7706V19.0006Z" fill="#F9FAFB"/>
</svg>
