<svg width="180" height="44" viewBox="0 0 180 44" fill="none" xmlns="http://www.w3.org/2000/svg">
<path d="M40.467 42.3003H41.2305L40.8576 36.304H39.8723L38.807 39.2043C38.5407 39.9605 38.3277 40.6188 38.1679 41.2238H38.1501C37.9903 40.601 37.795 39.9427 37.5465 39.2043L36.5256 36.304H35.5403L35.123 42.3003H35.8598L36.0196 39.7292C36.0729 38.8217 36.1173 37.8253 36.135 37.078H36.1528C36.3214 37.7897 36.5523 38.5548 36.8363 39.4089L37.8128 42.2647H38.3987L39.455 39.3555C39.7569 38.5282 39.9965 37.772 40.2096 37.078H40.2273C40.2273 37.8164 40.2806 38.8306 40.325 39.6669L40.467 42.3003Z" fill="white"/>
<path d="M42.4973 36.304V42.3003H43.2785V36.304H42.4973Z" fill="white"/>
<path d="M44.71 42.3003H48.0477V41.6508H45.4912V36.304H44.71V42.3003Z" fill="white"/>
<path d="M48.9859 42.3003H52.3236V41.6508H49.7671V36.304H48.9859V42.3003Z" fill="white"/>
<path d="M53.2618 36.304V42.3003H54.0429V36.304H53.2618Z" fill="white"/>
<path d="M57.5354 42.3003V39.747L59.5327 36.304H58.6628L57.8017 37.9588C57.5709 38.4125 57.3578 38.8039 57.198 39.1954H57.1803C56.9939 38.7773 56.8074 38.4125 56.5855 37.9588L55.7422 36.304H54.8545L56.7542 39.7559V42.3003H57.5354Z" fill="white"/>
<path d="M65.3732 40.4142L66.0123 42.3003H66.8379L64.7962 36.304H63.873L61.8312 42.3003H62.6302L63.2516 40.4142H65.3732ZM63.4113 39.8093L63.9972 38.0744C64.1215 37.7097 64.2103 37.336 64.2991 36.9891H64.3168C64.4056 37.336 64.4943 37.6919 64.6275 38.0833L65.2223 39.8093H63.4113Z" fill="white"/>
<path d="M71.859 42.3003L69.9949 39.2221L71.8146 36.304H70.9181L70.1103 37.7097C69.8883 38.0922 69.7374 38.368 69.5688 38.7239H69.5421C69.3823 38.4036 69.2137 38.1011 68.9917 37.7097L68.2017 36.304H67.3051L69.0628 39.2666L67.2341 42.3003H68.1218L68.8408 40.9836C69.1427 40.4587 69.3202 40.1384 69.4889 39.7915H69.5066C69.693 40.1384 69.8795 40.4676 70.1901 40.9747L70.9625 42.3003H71.859Z" fill="white"/>
<path d="M72.847 42.2825C73.1044 42.3181 73.5127 42.3537 74.0454 42.3537C75.0218 42.3537 75.6965 42.1757 76.1048 41.7932C76.4155 41.5085 76.6197 41.1081 76.6197 40.5922C76.6197 39.7025 75.9539 39.231 75.3858 39.0975V39.0708C76.0072 38.8484 76.3978 38.3413 76.3978 37.7542C76.3978 37.2826 76.2025 36.9268 75.8918 36.6955C75.5278 36.393 75.0307 36.2595 74.2584 36.2595C73.7258 36.2595 73.1843 36.3129 72.847 36.393V42.2825ZM73.6193 36.909C73.7435 36.8823 73.9477 36.8556 74.3028 36.8556C75.084 36.8556 75.6077 37.1403 75.6077 37.8342C75.6077 38.4125 75.1284 38.8484 74.3205 38.8484H73.6193V36.909ZM73.6193 39.4267H74.2584C75.1017 39.4267 75.803 39.7737 75.803 40.5833C75.803 41.4551 75.0662 41.7487 74.2673 41.7487C73.9921 41.7487 73.779 41.7398 73.6193 41.7131V39.4267Z" fill="white"/>
<path d="M80.1616 36.1973C78.5637 36.1973 77.3919 37.4428 77.3919 39.3466C77.3919 41.1615 78.4927 42.3981 80.0817 42.3981C81.6085 42.3981 82.8602 41.295 82.8602 39.2399C82.8602 37.4517 81.8038 36.1973 80.1616 36.1973ZM80.1349 36.8289C81.4221 36.8289 82.0435 38.0744 82.0435 39.2755C82.0435 40.6366 81.3511 41.7665 80.1261 41.7665C78.901 41.7665 78.2086 40.6188 78.2086 39.3288C78.2086 38.0211 78.8478 36.8289 80.1349 36.8289Z" fill="white"/>
<path d="M83.9561 42.3003H84.7284V39.7025H85.4563C86.1576 39.7292 86.486 40.0406 86.6636 40.8679C86.8234 41.6153 86.9565 42.1224 87.0542 42.3003H87.8531C87.7288 42.069 87.5868 41.4907 87.3915 40.6544C87.2495 40.0317 86.9743 39.6046 86.5216 39.4445V39.4178C87.143 39.2043 87.6401 38.6794 87.6401 37.8965C87.6401 37.425 87.4625 37.0157 87.1696 36.7489C86.8056 36.4197 86.2641 36.2595 85.4386 36.2595C84.9148 36.2595 84.3467 36.3129 83.9561 36.3841V42.3003ZM84.7284 36.9268C84.8615 36.8912 85.119 36.8645 85.4918 36.8645C86.3085 36.8645 86.8678 37.2026 86.8678 37.9766C86.8678 38.6616 86.344 39.1153 85.5185 39.1153H84.7284V36.9268Z" fill="white"/>
<path d="M91.262 36.1973C89.6642 36.1973 88.4924 37.4428 88.4924 39.3466C88.4924 41.1615 89.5932 42.3981 91.1821 42.3981C92.709 42.3981 93.9607 41.295 93.9607 39.2399C93.9607 37.4517 92.9043 36.1973 91.262 36.1973ZM91.2354 36.8289C92.5226 36.8289 93.144 38.0744 93.144 39.2755C93.144 40.6366 92.4516 41.7665 91.2265 41.7665C90.0015 41.7665 89.3091 40.6188 89.3091 39.3288C89.3091 38.0211 89.9482 36.8289 91.2354 36.8289Z" fill="white"/>
<path d="M95.9674 42.3003H96.7486V36.9624H98.5773V36.304H94.1476V36.9624H95.9674V42.3003Z" fill="white"/>
<path d="M102.075 42.3003H102.856V36.9624H104.684V36.304H100.255V36.9624H102.075V42.3003Z" fill="white"/>
<path d="M105.431 36.304V42.3003H106.212V36.304H105.431Z" fill="white"/>
<path d="M107.244 42.3003H111.611V41.6508H108.265V41.6241L111.567 36.7755V36.304H107.528V36.9535H110.555V36.9802L107.244 41.8466V42.3003Z" fill="white"/>
<path d="M112.639 36.304V42.3003H113.42V36.304H112.639Z" fill="white"/>
<path d="M120.045 42.3003H120.808L120.435 36.304H119.45L118.385 39.2043C118.118 39.9605 117.905 40.6188 117.745 41.2238H117.728C117.568 40.601 117.373 39.9427 117.124 39.2043L116.103 36.304H115.118L114.701 42.3003H115.437L115.597 39.7292C115.65 38.8217 115.695 37.8253 115.713 37.078H115.73C115.899 37.7897 116.13 38.5548 116.414 39.4089L117.39 42.2647H117.976L119.033 39.3555C119.334 38.5282 119.574 37.772 119.787 37.078H119.805C119.805 37.8164 119.858 38.8306 119.903 39.6669L120.045 42.3003Z" fill="white"/>
<path d="M122.075 36.304V42.3003H122.856V36.304H122.075Z" fill="white"/>
<path d="M35.2598 30.4802C35.8791 30.8232 37.1177 31.1662 38.3726 31.1662C41.3877 31.1662 42.7893 29.5982 42.7893 27.7525C42.7893 26.2008 41.8929 25.1881 39.9535 24.4695C38.5193 23.9305 37.9163 23.6201 37.9163 22.9178C37.9163 22.3625 38.4378 21.8561 39.5135 21.8561C40.5728 21.8561 41.3714 22.1664 41.7951 22.3788L42.3493 20.3861C41.6974 20.0758 40.801 19.8308 39.5461 19.8308C36.971 19.8308 35.3901 21.2518 35.3901 23.1301C35.3901 24.7308 36.5962 25.7435 38.4215 26.3968C39.7416 26.8542 40.2632 27.2462 40.2632 27.9322C40.2632 28.6508 39.6601 29.1245 38.5193 29.1245C37.46 29.1245 36.4169 28.7815 35.765 28.4385L35.2598 30.4802Z" fill="white"/>
<path d="M44.8272 19.9941V31.0029H47.3044V26.3968H51.3951V31.0029H53.8724V19.9941H51.3951V24.2245H47.3044V19.9941H44.8272Z" fill="white"/>
<path d="M62.0775 28.1772L62.925 31.0029H65.6141L62.1916 19.9941H58.9321L55.591 31.0029H58.1498L58.9321 28.1772H62.0775ZM59.2906 26.3152L59.9425 23.9795C60.1218 23.3425 60.2848 22.5095 60.4477 21.8561H60.4803C60.6433 22.5095 60.8389 23.3261 61.0345 23.9795L61.719 26.3152H59.2906Z" fill="white"/>
<path d="M67.4109 31.0029H69.8882V26.5765H73.8322V24.5511H69.8882V22.0358H74.1093V19.9941H67.4109V31.0029Z" fill="white"/>
<path d="M76.3314 31.0029H78.8086V26.5765H82.7527V24.5511H78.8086V22.0358H83.0297V19.9941H76.3314V31.0029Z" fill="white"/>
<path d="M90.0759 19.7981C86.849 19.7981 84.7303 22.2645 84.7303 25.5638C84.7303 28.7162 86.6534 31.1825 89.8967 31.1825C93.1236 31.1825 95.2912 29.0102 95.2912 25.3841C95.2912 22.3298 93.4496 19.7981 90.0759 19.7981ZM90.027 21.7744C91.7383 21.7744 92.6673 23.4731 92.6673 25.4658C92.6673 27.6055 91.7057 29.2062 90.027 29.2062C88.3647 29.2062 87.3542 27.6872 87.3542 25.5148C87.3542 23.3751 88.3321 21.7744 90.027 21.7744Z" fill="white"/>
<path d="M97.2599 31.0029H99.7372V26.5765H103.681V24.5511H99.7372V22.0358H103.958V19.9941H97.2599V31.0029Z" fill="white"/>
<path d="M119.889 30.9702C119.025 30.8069 118.08 30.5945 117.249 30.3495V30.2842C118.683 29.6308 119.84 27.8668 119.84 25.3678C119.84 22.3461 117.999 19.7981 114.658 19.7981C111.365 19.7981 109.279 22.2644 109.279 25.5801C109.279 29.1898 111.594 31.0192 114.087 31.1825C114.332 31.1989 114.592 31.2479 114.837 31.3459C116.32 31.9502 117.624 32.4402 119.188 32.8975L119.889 30.9702ZM114.576 29.2062C112.897 29.2062 111.903 27.6055 111.903 25.5148C111.903 23.4405 112.881 21.7744 114.576 21.7744C116.271 21.7744 117.216 23.4405 117.216 25.4658C117.216 27.6218 116.255 29.2062 114.576 29.2062Z" fill="white"/>
<path d="M121.793 19.9941V26.1355C121.793 29.6308 123.406 31.1825 126.177 31.1825C129.045 31.1825 130.756 29.5655 130.756 26.1681V19.9941H128.279V26.3152C128.279 28.2752 127.562 29.1898 126.258 29.1898C125.003 29.1898 124.27 28.2262 124.27 26.3152V19.9941H121.793Z" fill="white"/>
<path d="M133.228 31.0029H135.689V26.6745H136.422C137.449 26.6908 137.922 27.0502 138.231 28.4385C138.541 29.7942 138.818 30.6762 138.981 31.0029H141.523C141.311 30.5782 140.986 29.1408 140.643 27.8832C140.366 26.8705 139.942 26.1518 139.176 25.8415V25.7925C140.122 25.4495 141.116 24.4858 141.116 23.0975C141.116 22.0848 140.757 21.3008 140.089 20.7781C139.307 20.1574 138.166 19.9124 136.536 19.9124C135.2 19.9124 134.026 20.0104 133.228 20.1411V31.0029ZM135.689 21.8561C135.868 21.8071 136.21 21.7744 136.813 21.7744C137.954 21.7744 138.639 22.2971 138.639 23.2935C138.639 24.2571 137.905 24.8778 136.667 24.8778H135.689V21.8561Z" fill="white"/>
<path d="M143.231 19.9941V31.0029H145.708V19.9941H143.231Z" fill="white"/>
<path d="M148.204 31.0029H155.049V28.9122H150.681V19.9941H148.204V31.0029Z" fill="white"/>
<path d="M156.854 19.9941V31.0029H159.331V19.9941H156.854Z" fill="white"/>
<path d="M161.387 30.4802C162.007 30.8232 163.245 31.1662 164.5 31.1662C167.515 31.1662 168.917 29.5982 168.917 27.7525C168.917 26.2008 168.021 25.1881 166.081 24.4695C164.647 23.9305 164.044 23.6201 164.044 22.9178C164.044 22.3625 164.565 21.8561 165.641 21.8561C166.7 21.8561 167.499 22.1664 167.923 22.3788L168.477 20.3861C167.825 20.0758 166.929 19.8308 165.674 19.8308C163.099 19.8308 161.518 21.2518 161.518 23.1301C161.518 24.7308 162.724 25.7435 164.549 26.3968C165.869 26.8542 166.391 27.2462 166.391 27.9322C166.391 28.6508 165.788 29.1245 164.647 29.1245C163.588 29.1245 162.545 28.7815 161.893 28.4385L161.387 30.4802Z" fill="white"/>
<path d="M170.955 19.9941V31.0029H173.432V26.3968H177.523V31.0029H180V19.9941H177.523V24.2245H173.432V19.9941H170.955Z" fill="white"/>
<path d="M5.55078 13.1735C5.55078 12.9439 5.66083 12.7284 5.84645 12.5943L23.121 0.123046C23.5481 -0.185291 24.1433 0.12129 24.1433 0.649594V43.3496C24.1433 43.7077 23.8543 43.9981 23.4977 43.9981H6.19636C5.83981 43.9981 5.55078 43.7077 5.55078 43.3496V13.1735Z" fill="#24A9E1"/>
<path d="M16.5938 21.9919C16.5938 21.763 16.7032 21.5479 16.8879 21.4138L28.6106 12.9041C29.0375 12.5942 29.6343 12.9006 29.6343 13.4296V43.3512C29.6343 43.7093 29.3453 43.9996 28.9888 43.9996H17.2393C16.8828 43.9996 16.5938 43.7093 16.5938 43.3512V21.9919Z" fill="#26D3E1"/>
<path d="M0 34.2161C0 33.7972 0.201397 33.4042 0.540736 33.1607L9.90156 26.4454C10.3505 26.1233 10.9535 26.1233 11.4024 26.4454L20.7632 33.1607C21.1026 33.4042 21.304 33.7972 21.304 34.2161V43.3503C21.304 43.7084 21.0149 43.9987 20.6584 43.9987H0.645574C0.289033 43.9987 0 43.7084 0 43.3503V34.2161Z" fill="#26D3E1" fill-opacity="0.5"/>
<path d="M0 34.2161C0 33.7972 0.201397 33.4042 0.540736 33.1607L9.90156 26.4454C10.3505 26.1233 10.9535 26.1233 11.4024 26.4454L20.7632 33.1607C21.1026 33.4042 21.304 33.7972 21.304 34.2161V43.3503C21.304 43.7084 21.0149 43.9987 20.6584 43.9987H0.645574C0.289033 43.9987 0 43.7084 0 43.3503V34.2161Z" fill="#26D3E1"/>
<path fill-rule="evenodd" clip-rule="evenodd" d="M6.19636 43.9985L20.6572 43.9985C20.6578 43.9985 20.6583 43.9985 20.6588 43.9985C21.0146 43.9976 21.3028 43.7076 21.3028 43.3501V34.1931C21.3028 33.7747 21.1018 33.382 20.7631 33.1385L11.4023 26.409C10.9529 26.086 10.3487 26.086 9.89936 26.409L5.55078 29.5352V43.3501C5.55078 43.7082 5.83981 43.9985 6.19636 43.9985Z" fill="#0E74BC"/>
<path fill-rule="evenodd" clip-rule="evenodd" d="M17.2377 44.0006C17.2382 44.0006 17.2388 44.0006 17.2393 44.0006L23.5014 44.0006C23.8579 44.0006 24.147 43.7103 24.147 43.3522V16.1174L16.8876 21.3924C16.7031 21.5265 16.5938 21.7415 16.5938 21.9703V43.3522C16.5938 43.7098 16.8819 43.9997 17.2377 44.0006Z" fill="#0E47A0"/>
<path fill-rule="evenodd" clip-rule="evenodd" d="M16.9209 43.998C16.7255 43.8865 16.5938 43.6756 16.5938 43.4337V30.1519L20.7663 33.1485C21.1053 33.3919 21.3064 33.7848 21.3064 34.2034V43.3495C21.3064 43.7076 21.0174 43.998 20.6609 43.998H16.9209Z" fill="#092A5B"/>
</svg>
